# xmcd
#
# Track frame offsets: 
#        150
#        18035
#        48340
#        72545
#        93370
#        109252
#        140100
#        162190
#        191895
#        206162
#
# Disc length: 3143 seconds
#
# Revision: 0
# Processed by: cddbd v1.5.2PL0 Copyright (c) Steve Scherf et al.
# Submitted via: ExactAudioCopy v1.0b3
#
DISCID=920c450a
DTITLE=Duke Robillard - A Swingin Session with Duke Robillard
DYEAR=2008
DGENRE=Jazz
TTITLE0=Dead I Do
TTITLE1=The Lonesome Road
TTITLE2=Them That Got
TTITLE3=Just Because
TTITLE4=Meet Me At No Special Place
TTITLE5=Red Dog
TTITLE6=They Raided The Joint
TTITLE7=When Your Lover Has Gone
TTITLE8=The Song Is Ended
TTITLE9=Swinging With Lucy Mae
EXTD=
EXTT0=
EXTT1=
EXTT2=
EXTT3=
EXTT4=
EXTT5=
EXTT6=
EXTT7=
EXTT8=
EXTT9=
PLAYORDER=
